:SAMPLES-PER-SECOND 30
:FRAME-RANGE 1-1086
:FULLY-SPECIFIED
:DEGREES
170
root  -44.9232 38.5828 -129.653 11.1861 -61.9944 -7.46533
RightUpLeg  -15.8729 -0.954805 2.48285
RightLeg  22.0436 3.72551 1.37635
RightFoot  -10.91 -0.079652 1.51589
RightToes  1.21801e-010 1.2921e-014 -6.02303e-014
Spine  -3.12221 -1.58379 8.40401
Spine1  7.24271 -1.824 0.468082
HEad  7.8254 29.8745 -8.92429
LeftShoulder1  1.44137 -2.78258 -17.2672
LeftArm  3.88799 -0.470355 -52.6833
LeftForeArm  -5.14778 -41.2343 -10.128
LeftHand  0.101881 0.52761 -2.52902
RightShoulder  1.33778 1.44481 21.8699
RightArm  10.9117 12.2587 40.9601
RightForeArm  0.791347 44.5824 10.9928
RightHand  -0.0681429 -3.6635 -3.39895
LeftUpLeg  -25.2467 0.235118 0.44398
LeftLeg  57.1543 0.314361 1.04808
LeftFoot  -4.29826 0.2376 -3.44134
LeftToes  3.79492e-011 -8.60219e-011 1.56273e-011
171
root  -46.1505 38.6849 -129.016 10.0746 -61.255 -6.59914
RightUpLeg  -12.5009 -2.90385 2.07894
RightLeg  20.9206 4.51564 1.74712
RightFoot  -12.5368 -0.0756713 0.884383
RightToes  1.21801e-010 1.2921e-014 -6.02303e-014
Spine  -3.41192 -1.25028 8.10765
Spine1  7.02064 -1.53182 0.144593
HEad  8.116 29.2843 -8.76632
LeftShoulder1  1.3874 -2.50504 -17.4852
LeftArm  3.45957 -0.44576 -52.5432
LeftForeArm  -4.59135 -41.4921 -10.1848
LeftHand  0.143982 0.493948 -3.51546
RightShoulder  1.39576 1.67842 21.7134
RightArm  11.5755 13.3294 41.6945
RightForeArm  -0.139386 43.3627 10.5896
RightHand  -0.0690944 -3.53795 -3.26187
LeftUpLeg  -27.699 1.67018 0.21143
LeftLeg  50.5147 1.09581 1.87332
LeftFoot  -5.48508 0.195425 -3.17663
LeftToes  3.79492e-011 -8.60219e-011 1.56273e-011
172
root  -47.3717 38.7417 -128.36 9.2355 -60.3423 -6.26033
RightUpLeg  -8.81283 -4.28065 1.77808
RightLeg  19.6299 4.83569 1.95403
RightFoot  -13.9948 -0.0877714 0.299821
RightToes  1.21801e-010 1.2921e-014 -6.02303e-014
Spine  -3.50101 -1.01329 7.90295
Spine1  6.95054 -1.34601 -0.0818366
HEad  8.22424 28.7041 -8.70091
LeftShoulder1  1.37182 -2.45498 -17.4168
LeftArm  4.12529 -0.97036 -52.0203
LeftForeArm  -5.92048 -41.6124 -10.308
LeftHand  0.112458 0.722206 -2.92967
RightShoulder  1.40379 1.71358 21.6762
RightArm  12.1657 14.7021 42.6771
RightForeArm  -0.596945 42.0023 10.1241
RightHand  -0.0762366 -3.41166 -3.52034
LeftUpLeg  -28.9054 3.16194 0.0275162
LeftLeg  41.8204 2.96518 3.22405
LeftFoot  -4.91077 0.153164 -2.20122
LeftToes  3.79492e-011 -8.60219e-011 1.56273e-011
173
root  -48.5456 38.7824 -127.61 7.85858 -59.6773 -4.65129
RightUpLeg  -5.689 -5.53917 0.550306
RightLeg  18.224 5.38985 2.18976
RightFoot  -15.3168 -0.106851 -0.0928693
RightToes  1.21801e-010 1.2921e-014 -6.02303e-014
Spine  -4.16639 -0.75731 7.60085
Spine1  6.95039 -0.967175 -1.105
HEad  8.49185 28.5328 -8.35564
LeftShoulder1  1.3496 -2.39522 -17.2643
LeftArm  3.60809 -0.919216 -51.893
LeftForeArm  -6.0504 -41.9302 -10.4294
LeftHand  0.0820378 0.947395 -2.30911
RightShoulder  1.44532 1.85516 21.7227
RightArm  12.6834 15.9015 43.557
RightForeArm  -1.11091 40.8489 9.75476
RightHand  -0.0798806 -3.28502 -3.54548
LeftUpLeg  -29.345 4.11514 -1.04389
LeftLeg  31.0852 6.19279 4.3583
LeftFoot  -2.67309 0.147665 -1.73633
LeftToes  3.79492e-011 -8.60219e-011 1.56273e-011
174
root  -49.7013 38.7699 -126.795 7.22054 -59.2622 -4.3065
RightUpLeg  -1.99933 -5.78612 -0.0505463
RightLeg  16.4266 5.02984 1.96807
RightFoot  -16.3209 -0.116063 -0.129948
RightToes  1.21801e-010 1.2921e-014 -6.02303e-014
Spine  -4.60408 -0.429789 8.15655
Spine1  7.44893 -0.45237 -2.26075
HEad  8.31855 28.175 -8.4004
LeftShoulder1  1.30737 -2.23194 -17.1935
LeftArm  2.9211 -1.20082 -51.7872
LeftForeArm  -6.35362 -42.0403 -10.4875
LeftHand  0.0725811 0.734087 -1.93287
RightShoulder  1.51907 2.19246 21.3329
RightArm  13.0274 17.0881 44.4579
RightForeArm  -1.5725 39.801 9.43129
RightHand  -0.0834538 -3.18088 -3.59529
LeftUpLeg  -28.391 3.98542 -1.07901
LeftLeg  19.4676 10.6349 4.46515
LeftFoot  -1.5525 0.182303 -2.02013
LeftToes  3.79492e-011 -8.60219e-011 1.56273e-011
175
root  -50.8325 38.6693 -125.905 6.82207 -59.2359 -4.92348
RightUpLeg  2.37368 -5.09394 -0.0941415
RightLeg  14.4488 4.43939 1.4117
RightFoot  -17.392 -0.0987801 0.357591
RightToes  1.21801e-010 1.2921e-014 -6.02303e-014
Spine  -4.26144 -0.133698 9.88633
Spine1  8.03967 0.341086 -4.41062
HEad  8.25966 28.0045 -8.38003
LeftShoulder1  1.27355 -2.05841 -17.3374
LeftArm  2.0741 -1.39871 -51.5265
LeftForeArm  -6.10504 -42.1584 -10.5151
LeftHand  0.0804393 0.704209 -2.11318
RightShoulder  1.565 2.4125 21.0622
RightArm  13.759 18.513 45.4015
RightForeArm  -2.38586 38.6506 9.10714
RightHand  -0.0844926 -3.1022 -3.57935
LeftUpLeg  -26.3605 0.775045 0.826842
LeftLeg  8.49956 16.8695 3.4422
LeftFoot  -2.55628 0.195287 -2.34242
LeftToes  3.79492e-011 -8.60219e-011 1.56273e-011
176
root  -51.9504 38.4941 -125.002 6.70631 -59.4511 -6.06134
RightUpLeg  6.624 -3.90109 0.323911
RightLeg  12.9872 3.42772 0.720264
RightFoot  -18.3979 -0.0610156 1.02992
RightToes  1.21801e-010 1.2921e-014 -6.02303e-014
Spine  -3.5289 0.0750002 11.596
Spine1  8.60136 1.11061 -6.51219
HEad  8.33636 28.1618 -8.36021
LeftShoulder1  1.25883 -2.00152 -17.3125
LeftArm  0.989972 -1.06315 -51.3185
LeftForeArm  -6.10264 -42.6532 -10.6959
LeftHand  0.0689714 0.909578 -1.94076
RightShoulder  1.72083 3.0635 20.7069
RightArm  14.2185 19.5894 46.0939
RightForeArm  -3.07251 37.835 8.89083
RightHand  -0.0843822 -3.12514 -3.56785
LeftUpLeg  -24.6445 0.0824538 1.69236
LeftLeg  -0.0759114 17.9271 2.77997
LeftFoot  -5.04973 0.0899466 -1.084
LeftToes  3.79492e-011 -8.60219e-011 1.56273e-011
177
root  -53.0637 38.2085 -124.04 7.06096 -59.5211 -8.42767
RightUpLeg  10.7702 -2.54175 1.33052
RightLeg  13.2234 2.63553 0.340024
RightFoot  -19.5132 0.0333767 2.31688
RightToes  1.21801e-010 1.2921e-014 -6.02303e-014
Spine  -1.56572 0.0747223 13.9366
Spine1  8.3333 1.67739 -8.5967
HEad  8.46909 28.4639 -8.16786
LeftShoulder1  1.15789 -1.65724 -16.8886
LeftArm  0.746179 -0.850132 -51.105
LeftForeArm  -6.63432 -43.0341 -10.8703
LeftHand  0.0683314 0.742708 -1.83028
RightShoulder  1.76037 3.23385 20.6054
RightArm  15.2313 20.8358 46.9525
RightForeArm  -3.74356 36.9315 8.65221
RightHand  -0.0830553 -3.09784 -3.46173
LeftUpLeg  -23.9259 0.351065 2.79167
LeftLeg  -1.74607 18.2904 3.27823
LeftFoot  -8.22976 0.142391 -3.42463
LeftToes  3.79492e-011 -8.60219e-011 1.56273e-011
178
root  -54.2306 37.8604 -123.02 7.13458 -58.3535 -10.0811
RightUpLeg  14.1328 -3.80449 1.16746
RightLeg  14.8744 4.17847 1.03947
RightFoot  -20.605 0.146899 3.53573
RightToes  1.21801e-010 1.2921e-014 -6.02303e-014
Spine  0.079289 -0.192573 15.2791
Spine1  7.49138 1.61296 -9.29247
HEad  8.57644 28.1992 -8.06711
LeftShoulder1  1.19259 -1.77958 -17.021
LeftArm  0.121762 -0.471014 -50.8174
LeftForeArm  -6.34292 -43.7173 -11.1116
LeftHand  0.0554639 0.917685 -1.59029
RightShoulder  1.71023 3.00748 20.7825
RightArm  15.6671 21.675 47.484
RightForeArm  -4.07568 36.4524 8.52691
RightHand  -0.077593 -3.13884 -3.22467
LeftUpLeg  -24.7631 1.74726 3.23975
LeftLeg  3.26332 16.3345 3.56703
LeftFoot  -7.77291 0.130539 -2.69287
LeftToes  3.79492e-011 -8.60219e-011 1.56273e-011
179
root  -55.3591 37.5956 -122.013 5.83209 -58.1147 -10.1902
RightUpLeg  16.2801 0.181522 2.32548
RightLeg  18.5619 1.55672 0.377244
RightFoot  -21.1242 0.431717 6.71338
RightToes  1.21801e-010 1.2921e-014 -6.02303e-014
Spine  2.19236 0.139575 15.3841
Spine1  6.93347 2.20719 -10.3925
HEad  8.90483 27.6972 -7.95834
LeftShoulder1  1.12019 -1.5053 -16.8372
LeftArm  -0.143367 -0.25768 -51.3233
LeftForeArm  -5.95907 -44.3508 -11.3339
LeftHand  0.0425468 1.19922 -1.37991
RightShoulder  1.74407 3.13118 20.7918
RightArm  14.7636 21.2738 47.3084
RightForeArm  -3.93021 36.4141 8.50716
RightHand  -0.0734654 -3.12177 -2.98586
LeftUpLeg  -25.6157 2.54327 2.77497
LeftLeg  10.5868 15.9575 4.86719
LeftFoot  -3.32579 -0.079401 1.41976
LeftToes  3.79492e-011 -8.60219e-011 1.56273e-011
180
root  -56.4515 37.428 -120.857 2.79506 -57.5376 -7.44232
RightUpLeg  15.9653 1.25392 0.111571
RightLeg  25.7236 3.47073 1.60423
RightFoot  -20.276 0.71185 10.8476
RightToes  1.21801e-010 1.2921e-014 -6.02303e-014
Spine  3.64595 0.167547 14.2292
Spine1  5.99998 2.38177 -11.6899
HEad  8.89673 28.0353 -7.6406
LeftShoulder1  0.980542 -0.975638 -16.4197
LeftArm  -0.97678 0.876084 -51.8686
LeftForeArm  -4.92142 -45.4724 -11.7181
LeftHand  0.0289551 1.34342 -1.05715
RightShoulder  1.67101 2.70937 21.5143
RightArm  15.2218 21.5271 47.7978
RightForeArm  -3.95081 35.7214 8.30347
RightHand  -0.0702013 -2.86664 -2.58245
LeftUpLeg  -25.7874 -0.639251 1.17312
LeftLeg  15.5673 16.3909 6.92701
LeftFoot  2.42659 -0.345971 2.74361
LeftToes  3.79492e-011 -8.60219e-011 1.56273e-011
181
root  -57.5868 37.2829 -119.717 0.58049 -56.394 -4.53981
RightUpLeg  12.2792 2.77332 -2.49288
RightLeg  36.729 6.71207 5.10336
RightFoot  -16.3655 0.602769 16.1854
RightToes  1.21801e-010 1.2921e-014 -6.02303e-014
Spine  3.72014 0.594975 12.3812
Spine1  5.52214 2.48578 -11.26
HEad  8.72575 27.4379 -7.86479
LeftShoulder1  1.01732 -1.01191 -17.1371
LeftArm  -0.377589 0.72185 -51.5421
LeftForeArm  -5.59712 -44.7505 -11.4694
LeftHand  0.0172162 0.659932 -0.516782
RightShoulder  1.78835 3.19789 21.2266
RightArm  13.7351 20.4615 47.5553
RightForeArm  -3.29073 35.7579 8.27679
RightHand  -0.0651377 -2.89676 -2.3645
LeftUpLeg  -26.5268 -2.33151 -0.248922
LeftLeg  20.8595 16.0401 7.16607
LeftFoot  2.77018 -0.248724 1.87396
LeftToes  3.79492e-011 -8.60219e-011 1.56273e-011
182
root  -58.7349 37.3372 -118.548 -0.731308 -54.5482 -2.7733
RightUpLeg  6.3063 2.38818 -4.96689
RightLeg  49.7893 7.3314 8.87322
RightFoot  -6.48369 -0.732057 16.1132
RightToes  1.21801e-010 1.2921e-014 -6.02303e-014
Spine  3.14388 0.753627 11.7053
Spine1  5.5241 2.57485 -10.792
HEad  8.5449 27.0887 -8.31501
LeftShoulder1  1.04892 -1.05338 -17.6807
LeftArm  -0.60153 1.11413 -51.4271
LeftForeArm  -5.01391 -45.4325 -11.7077
LeftHand  0.027587 1.35684 -1.02288
RightShoulder  2.06326 4.47871 20.1905
RightArm  12.4028 19.3803 46.7798
RightForeArm  -3.2039 36.1282 8.38076
RightHand  -0.0552508 -2.98879 -1.94133
LeftUpLeg  -25.3963 -3.47496 -2.17109
LeftLeg  22.4885 14.8738 7.0006
LeftFoot  4.51165 -0.697198 4.80763
LeftToes  3.79492e-011 -8.60219e-011 1.56273e-011
183
root  -59.7884 37.3263 -117.528 -3.00473 -52.9219 0.24794
RightUpLeg  -1.38276 4.58961 -5.91197
RightLeg  62.1011 4.12188 7.89819
RightFoot  5.52538 -1.79369 12.3118
RightToes  1.21801e-010 1.2921e-014 -6.02303e-014
Spine  2.97173 1.10681 9.59026
Spine1  5.40018 2.80928 -10.7623
HEad  9.43338 27.1953 -8.60173
LeftShoulder1  1.06228 -1.08952 -17.7959
LeftArm  -0.427387 1.19977 -51.2295
LeftForeArm  -5.22263 -45.5752 -11.7799
LeftHand  0.0115966 1.42936 -0.577326
RightShoulder  2.04877 4.41139 20.2359
RightArm  13.6728 20.2657 46.8163
RightForeArm  -4.03453 35.4187 8.21993
RightHand  -0.0557654 -2.86187 -1.89673
LeftUpLeg  -24.5662 -5.02914 -4.86765
LeftLeg  25.2579 14.8268 7.84387
LeftFoot  1.94201 -0.735877 6.21212
LeftToes  3.79492e-011 -8.60219e-011 1.56273e-011
184
root  -60.8398 37.2906 -116.594 -5.09949 -49.9367 3.59401
RightUpLeg  -7.28379 5.04917 -7.86728
RightLeg  70.094 2.73477 7.60856
RightFoot  4.51378 -1.6523 12.048
RightToes  1.21801e-010 1.2921e-014 -6.02303e-014
Spine  2.03572 1.25723 6.52783
Spine1  5.50975 2.66431 -10.2773
HEad  11.1303 26.998 -7.95164
LeftShoulder1  1.13911 -1.44492 -17.5908
LeftArm  -0.558582 0.935892 -51.5861
LeftForeArm  -5.56134 -44.6683 -11.4343
LeftHand  0.0112034 1.31167 -0.530295
RightShoulder  1.97816 4.05062 20.5962
RightArm  14.4568 21.0572 46.9364
RightForeArm  -4.78609 34.481 7.99291
RightHand  -0.0616542 -2.78531 -2.12749
LeftUpLeg  -23.5733 -6.98605 -7.99877
LeftLeg  27.0475 13.993 7.99058
LeftFoot  -0.86954 -0.51298 5.65056
LeftToes  3.79492e-011 -8.60219e-011 1.56273e-011
